<?xml version="1.0" encoding="UTF-8" standalone="no"?>
<svg
   viewBox="0 0 500 500"
   width="500px"
   height="500px"
   version="1.1"
   id="svg526"
   sodipodi:docname="volume-icon.svg"
   inkscape:version="1.2.2 (b0a8486541, 2022-12-01)"
   xmlns:inkscape="http://www.inkscape.org/namespaces/inkscape"
   xmlns:sodipodi="http://sodipodi.sourceforge.net/DTD/sodipodi-0.dtd"
   xmlns="http://www.w3.org/2000/svg"
   xmlns:svg="http://www.w3.org/2000/svg"
   xmlns:bx="https://boxy-svg.com">
  <sodipodi:namedview
     id="namedview528"
     pagecolor="#505050"
     bordercolor="#eeeeee"
     borderopacity="1"
     inkscape:showpageshadow="0"
     inkscape:pageopacity="0"
     inkscape:pagecheckerboard="0"
     inkscape:deskcolor="#505050"
     showgrid="false"
     inkscape:zoom="1.1950105"
     inkscape:cx="649.3667"
     inkscape:cy="278.65865"
     inkscape:window-width="1886"
     inkscape:window-height="1011"
     inkscape:window-x="0"
     inkscape:window-y="32"
     inkscape:window-maximized="1"
     inkscape:current-layer="svg526" />
  <defs
     id="defs522">
    <bx:export>
      <bx:file
         format="svg"
         path="volume-icon.svg" />
    </bx:export>
  </defs>
  <path
     d="M 317.3667,1.5026175 V 498.71211 L 186.61299,381.03245 H 0.56119669 L 2.7717239,143.21309 H 186.61299 Z M 353.15957,166.24286 c 48.16532,0 87.21179,37.14295 87.21179,82.96024 0,45.81838 -39.04647,82.96024 -87.21179,82.96024 v -27.65341 c 20.7785,0.009 39.98369,-10.52932 50.37585,-27.64568 10.39217,-17.11526 10.39217,-38.20596 0,-55.32232 -10.39216,-17.11524 -29.59735,-27.65451 -50.37585,-27.64456 z m 0,-63.20243 c 49.8677,-0.0243 95.95737,28.00073 120.89762,73.51383 24.94024,45.51309 24.94024,101.59422 0,147.10731 -24.94025,45.51198 -71.02992,73.53817 -120.89762,73.51384 v -30.63888 c 39.48018,0.021 75.9696,-22.16587 95.71551,-58.19716 19.7459,-36.0324 19.7459,-80.43161 0,-116.4629 -19.74591,-36.0324 -56.23533,-58.21819 -95.71551,-58.19717 z"
     style="stroke:#000000;stroke-width:1.13412"
     id="path524" />
</svg>
